<svg viewBox="0 0 280 182"><g id="OutlineLogoIconOnly" fill="currentColor"><path d="M40.3473465,142.604278 C39.8842178,140.466187 39.8842178,138.496746 40.3473465,136.695954 C50.0219273,123.487491 56.5282291,114.89465 59.8662517,110.917433 C68.6450036,100.457645 77.8883744,90.6132866 87.5966412,81.3840623 C97.3049081,72.1548379 107.167946,63.7461152 117.186051,56.1576418 C121.219791,53.102181 129.714458,47.4529238 142.670052,39.2098704 C143.343067,38.9300432 144.504979,38.9300432 146.155788,39.2098704 C147.182962,69.6780595 147.272795,101.042787 146.425286,133.304051 L146.425287,133.304052 C146.287201,138.560434 142.101942,142.811976 136.848378,143.032633 C103.050428,144.452191 70.8834176,144.309406 40.3473465,142.604278 Z M56.4862944,134.9233 C79.3915936,136.202328 103.486457,136.341824 128.770883,135.341788 C134.040688,135.133359 138.242772,130.868179 138.372644,125.595854 L138.372645,125.595854 C138.967038,101.465598 138.879473,77.9876131 138.109949,55.1619 C136.836468,54.9460333 135.940136,54.9460333 135.420953,55.1619 C125.426638,61.520827 118.873609,65.8788253 115.761867,68.2358951 C108.033614,74.0898603 100.424985,80.5765892 92.9357503,87.6962766 C85.4465159,94.815964 78.3159156,102.410183 71.5437355,110.479162 C68.9686895,113.547302 63.9495425,120.176064 56.4862944,130.36545 C56.1290237,131.754633 56.1290237,133.273916 56.4862944,134.9233 Z" id="Combined-Shape"></path><path d="M154.727303,64.7217991 C154.673651,61.3984382 154.609737,58.0849541 154.535561,54.7813469 C156.721649,56.2848162 158.688907,57.6935797 160.437335,59.0076374 C169.780375,66.0295406 178.978798,73.8104518 188.032878,82.3506044 C197.086959,90.890757 205.70747,100.000116 213.894671,109.678956 C222.081871,119.357796 229.450241,129.131379 236.000001,139 L153.966374,139 C154.18233,138.224959 154.307396,137.412068 154.329484,136.573615 L154.329488,136.573615 C154.380433,134.639778 154.428177,132.709022 154.472721,130.781347 L218.966374,130.781347 C213.009158,122.226355 206.307389,113.75375 198.860869,105.363278 C191.414348,96.972805 183.573717,89.076008 175.338741,81.6726498 C168.557336,75.5760723 161.686903,69.9258264 154.727303,64.7217991 Z" id="Combined-Shape"></path></g></svg>